#!OML:ASF F:\VICON\USERDATA\INSTALL\rory3\rory3.ASF
:FULLY-SPECIFIED
:DEGREES
566
root 4.61076 15.8432 1.7834 21.072 -6.90731 -4.07805
lowerback 12.4246 -0.592804 1.32407
upperback 5.57848 -0.655091 -0.207469
thorax -1.14364 -0.311255 -0.87493
lowerneck -17.9348 -0.663283 -1.15032
upperneck 39.1884 0.174795 -2.0704
head 17.4238 -0.442734 -0.717375
rclavicle -2.5842e-014 -6.36111e-015
rhumerus -67.9361 61.0167 -87.5498
rradius 73.0476
rwrist -21.038
rhand -8.70139 -43.2749
rfingers 7.12502
rthumb 17.2339 -72.5307
lclavicle -2.5842e-014 -6.36111e-015
lhumerus -80.3415 -72.5932 108.601
lradius 67.4401
lwrist 64.9019
lhand -29.1468 -23.6072
lfingers 7.12502
lthumb -2.49352 6.35798
rfemur -73.649 -0.0897683 20.1464
rtibia 35.8612
rfoot 37.822 -0.400199
rtoes 3.29215
lfemur -56.3808 4.65854 -28.7631
ltibia 60.4224
lfoot -24.1629 3.4439
ltoes 11.8651
567
root 4.61133 15.851 1.78387 21.1686 -6.79345 -4.10972
lowerback 12.3881 -0.622045 1.42847
upperback 5.54927 -0.682152 -0.218758
thorax -1.15622 -0.323062 -0.942032
lowerneck -17.9265 -0.685298 -1.28012
upperneck 39.1496 0.0911312 -1.8307
head 17.3985 -0.461424 -0.600451
rclavicle 0 -1.15295e-014
rhumerus -68.3344 60.9556 -87.7183
rradius 72.8666
rwrist -20.8064
rhand -8.53663 -43.1692
rfingers 7.12502
rthumb 17.3924 -72.4111
lclavicle 0 -1.15295e-014
lhumerus -81.4973 -72.4507 109.399
lradius 67.1915
lwrist 64.4555
lhand -28.9367 -23.5944
lfingers 7.12502
lthumb -2.29055 6.37302
rfemur -73.6911 -0.301145 20.3144
rtibia 35.8143
rfoot 37.8528 -0.458778
rtoes 3.87367
lfemur -56.3978 4.51318 -28.6895
ltibia 60.3626
lfoot -24.1382 3.52517
ltoes 11.9631
568
root 4.61303 15.8573 1.78297 21.3168 -6.59665 -4.3117
lowerback 12.4111 -0.680369 1.74539
upperback 5.46002 -0.720783 -0.170898
thorax -1.26525 -0.339306 -1.06504
lowerneck -17.9621 -0.700455 -1.47098
upperneck 39.2451 0.0270841 -1.55183
head 17.4604 -0.47722 -0.453501
rclavicle 1.19271e-014 -1.66979e-014
rhumerus -68.8039 60.8763 -87.8633
rradius 72.899
rwrist -20.7319
rhand -8.44384 -43.443
rfingers 7.12502
rthumb 17.4817 -72.6769
lclavicle 1.19271e-014 -1.66979e-014
lhumerus -82.9456 -72.4393 110.475
lradius 67.0818
lwrist 64.2918
lhand -27.4726 -20.7983
lfingers 7.12502
lthumb -0.876503 9.17963
rfemur -73.7477 -0.48253 20.6499
rtibia 35.7722
rfoot 37.9318 -0.0635285
rtoes 3.38438
lfemur -56.5355 4.34595 -28.4216
ltibia 60.3568
lfoot -24.0719 3.61162
ltoes 11.9376
569
root 4.61138 15.8535 1.78114 21.4566 -6.38524 -4.44617
lowerback 12.4399 -0.700104 1.98894
upperback 5.38414 -0.716551 -0.127587
thorax -1.36155 -0.335479 -1.15713
lowerneck -17.9286 -0.740255 -1.57027
upperneck 39.3192 -0.0530186 -1.40989
head 17.493 -0.503945 -0.387228
rclavicle -1.59028e-015 -3.18055e-015
rhumerus -69.4158 60.8626 -88.1257
rradius 72.8855
rwrist -21.0681
rhand -8.41525 -43.4386
rfingers 7.12502
rthumb 17.5092 -72.6701
lclavicle -1.59028e-015 -3.18055e-015
lhumerus -84.1504 -72.2403 111.434
lradius 66.8543
lwrist 64.0298
lhand -27.5871 -21.2569
lfingers 7.12502
lthumb -0.987152 8.72059
rfemur -73.8334 -0.578968 20.7856
rtibia 35.7416
rfoot 37.9433 0.123879
rtoes 2.874
lfemur -56.7195 4.11675 -28.1837
ltibia 60.3888
lfoot -24.0566 3.61678
ltoes 12.3258
570
root 4.6067 15.8479 1.77971 21.5487 -6.2589 -4.49851
lowerback 12.3842 -0.677509 2.08739
upperback 5.38371 -0.676646 -0.113232
thorax -1.33118 -0.314154 -1.20348
lowerneck -17.8313 -0.771019 -1.58543
upperneck 39.2997 -0.114241 -1.36232
head 17.4566 -0.522672 -0.373571
rclavicle -1.39149e-014 1.19271e-015
rhumerus -69.8837 60.8104 -88.2943
rradius 72.7891
rwrist -21.3952
rhand -8.61434 -43.2502
rfingers 7.12502
rthumb 17.3176 -72.4986
lclavicle -1.39149e-014 1.19271e-015
lhumerus -85.2143 -72.1155 112.262
lradius 66.5876
lwrist 63.5915
lhand -28.3108 -22.6512
lfingers 7.12502
lthumb -1.68612 7.32191
rfemur -73.9082 -0.598288 20.7826
rtibia 35.7343
rfoot 37.9391 -0.0403057
rtoes 3.02535
lfemur -56.8528 3.98093 -28.06
ltibia 60.4156
lfoot -24.0932 3.56824
ltoes 12.7804
571
root 4.60574 15.8532 1.77962 21.5837 -6.18067 -4.523
lowerback 12.2482 -0.672901 2.14978
upperback 5.48318 -0.668332 -0.11485
thorax -1.15405 -0.306677 -1.24302
lowerneck -17.9057 -0.783368 -1.50105
upperneck 39.3216 -0.112852 -1.47823
head 17.488 -0.525429 -0.441909
rclavicle 9.93923e-015 4.37326e-015
rhumerus -69.887 60.6693 -88.0583
rradius 72.73
rwrist -21.3138
rhand -8.76257 -43.5902
rfingers 7.12502
rthumb 17.175 -72.8511
lclavicle 9.93923e-015 4.37326e-015
lhumerus -86.4245 -72.3478 113.148
lradius 66.5355
lwrist 63.6558
lhand -28.6744 -23.6234
lfingers 7.12502
lthumb -2.03728 6.34661
rfemur -73.9124 -0.652733 20.7962
rtibia 35.77
rfoot 37.8907 -0.246526
rtoes 3.44713
lfemur -56.8517 3.90011 -28.0016
ltibia 60.3878
lfoot -24.1091 3.56659
ltoes 12.7372
572
root 4.60284 15.857 1.78147 21.5995 -6.18796 -4.39327
lowerback 12.1415 -0.664055 1.96724
upperback 5.5749 -0.68074 -0.143701
thorax -1.00004 -0.313125 -1.16993
lowerneck -18.1284 -0.81134 -1.44501
upperneck 39.4891 -0.130441 -1.57039
head 17.6404 -0.538449 -0.501713
rclavicle -4.37326e-015 1.47101e-014
rhumerus -69.8849 60.6268 -87.8476
rradius 72.5882
rwrist -21.0604
rhand -9.15706 -43.744
rfingers 7.12502
rthumb 16.7952 -73.0376
lclavicle -4.37326e-015 1.47101e-014
lhumerus -86.9297 -72.1976 113.398
lradius 66.3531
lwrist 63.5718
lhand -28.2634 -23.4966
lfingers 7.12502
lthumb -1.64027 6.4768
rfemur -73.9415 -0.652697 20.5944
rtibia 35.8092
rfoot 37.7601 -0.133175
rtoes 3.10331
lfemur -56.8322 3.80343 -28.1025
ltibia 60.3307
lfoot -24.0959 3.54138
ltoes 12.7641
